<?xml version="1.0" encoding="UTF-8" standalone="no"?>
<!DOCTYPE svg PUBLIC "-//W3C//DTD SVG 1.1//EN" "http://www.w3.org/Graphics/SVG/1.1/DTD/svg11.dtd">
<svg width="100%" height="100%" viewBox="0 0 1160 229" version="1.1" xmlns="http://www.w3.org/2000/svg" xmlns:xlink="http://www.w3.org/1999/xlink" xml:space="preserve" xmlns:serif="http://www.serif.com/" style="fill-rule:evenodd;clip-rule:evenodd;stroke-linejoin:round;stroke-miterlimit:2;">
    <g transform="matrix(1,0,0,1,-13542,-4801)">
        <g id="humm_combination_w_beta" transform="matrix(1.03065,0,0,0.250562,-11263.6,1131.38)">
            <rect x="24067.8" y="14645.6" width="1125.5" height="910.355" style="fill:none;"/>
            <g transform="matrix(0.521886,0,0,2.14671,17282.3,-5561.19)">
                <text x="14938.7px" y="9835.62px" style="font-family:'Eina01-SemiboldItalic', 'Eina 01';font-weight:600;font-style:italic;font-size:104.189px;fill:white;">beta</text>
            </g>
            <g transform="matrix(0.970259,0,0,3.97522,13033.1,12965)">
                <g transform="matrix(0.582438,0,0,0.460588,-2458.4,-681.458)">
                    <g>
                        <g transform="matrix(1.71938,0,0,2.17671,-18149.6,-3226.78)">
                            <path d="M25067.3,2730.09C25070,2721.3 25071.8,2690.83 25080.5,2668.67C25084,2659.73 25092.2,2656.83 25099.2,2656.83C25102.3,2656.83 25105.5,2657.66 25107.8,2659.57C25126.8,2675.57 25135.5,2751.55 25135.5,2751.55C25136.5,2756.37 25133.3,2760.35 25129.5,2761.13C25125.6,2761.94 25121.8,2759 25120.8,2754.18C25120.8,2754.18 25113,2703.73 25106.1,2683.6C25104.9,2679.81 25102.8,2671.83 25098.8,2671.5C25092.4,2670.97 25088.4,2693.69 25087.3,2699.09C25082.3,2725.09 25083.3,2722.09 25081.3,2732.47C25075.9,2760.33 25064.2,2761.11 25057.3,2761.25C25050.7,2761.22 25038.8,2760.33 25033.4,2732.47C25031.3,2722.09 25032.3,2725.09 25027.3,2699.09C25026.3,2693.69 25022.3,2671.09 25015.8,2671.5C25009.3,2671.92 25005.4,2693.69 25004.3,2699.09C24999.3,2725.09 25000.3,2722.09 24998.3,2732.47C24992.9,2760.33 24981.2,2761.07 24974.4,2761.26C24967.5,2761.04 24955.8,2760.33 24950.4,2732.47C24948.3,2722.09 24949.3,2725.09 24944.3,2699.09C24943.3,2693.69 24939.3,2671.09 24932.8,2671.5C24926.3,2671.92 24922.4,2693.69 24921.3,2699.09C24916.3,2725.09 24917.3,2722.09 24915.3,2732.47C24909.9,2760.33 24898.3,2761.05 24891.4,2761.23C24884.5,2761.01 24872.8,2760.33 24867.4,2732.47C24865.3,2722.09 24866.3,2725.09 24861.3,2699.09C24860.3,2693.69 24856.3,2671.09 24849.8,2671.5C24846.5,2671.72 24843.8,2679.83 24842.4,2683.86C24835.5,2703.99 24827.8,2754.44 24827.8,2754.44C24826.8,2759.26 24822.8,2761.94 24818.8,2761.13C24815.1,2760.35 24812,2756.63 24813,2751.81C24813,2751.81 24821.8,2675.83 24840.8,2659.83C24843,2657.92 24846.2,2657.09 24849.3,2657.09C24856.3,2657.09 24864.3,2660.09 24868.1,2668.93C24876.9,2689.85 24878.5,2720.64 24881.3,2730.09C24885.1,2742.64 24888.5,2744.99 24891.2,2745C24891.3,2745 24891.3,2745 24891.3,2745.01C24891.4,2745 24891.4,2745 24891.5,2745C24894.2,2744.99 24897.6,2742.64 24901.3,2730.09C24904.2,2720.64 24905.8,2689.85 24914.6,2668.93C24918.3,2660.09 24925.3,2657.09 24932.3,2657.09C24939.3,2657.09 24947.3,2660.09 24951.1,2668.93C24959.9,2689.85 24961.5,2720.64 24964.3,2730.09C24968.1,2742.64 24971.5,2744.99 24974.2,2745C24974.3,2745 24974.3,2745 24974.3,2745.01C24974.4,2745 24974.4,2745 24974.5,2745C24977.2,2744.99 24980.6,2742.64 24984.3,2730.09C24987.2,2720.64 24988.8,2689.85 24997.6,2668.93C25001.3,2660.09 25008.3,2657.09 25015.3,2657.09C25022.3,2657.09 25030.3,2660.09 25034.1,2668.93C25042.9,2689.85 25044.5,2720.64 25047.3,2730.09C25051.1,2742.64 25054.5,2744.99 25057.2,2745C25057.3,2745 25057.3,2745 25057.3,2745.01C25057.4,2745 25057.4,2745 25057.5,2745C25060.2,2744.99 25063.6,2742.64 25067.3,2730.09Z" style="fill:white;fill-rule:nonzero;"/>
                        </g>
                        <g transform="matrix(2.01393,0,0,2.54965,22253.2,-16677.6)">
                            <path d="M1721.88,7591.56C1726.71,7591.56 1729.67,7588.6 1729.67,7582.99L1729.67,7581.74C1728.11,7561.34 1715.46,7544.57 1692.72,7544.57C1667.33,7544.57 1653.2,7562.43 1653.2,7589.38C1653.2,7616.32 1667.89,7632.94 1693.43,7632.94C1713.68,7632.94 1722.82,7624.11 1727.8,7613.83C1728.42,7612.89 1728.58,7611.96 1728.58,7611.03C1728.58,7608.22 1726.4,7606.35 1723.75,7605.57C1722.66,7605.26 1721.57,7604.95 1720.48,7604.95C1718.3,7604.95 1716.27,7606.04 1714.87,7608.85C1711.13,7617.1 1704.64,7621.84 1693.42,7621.84C1676.6,7621.84 1667.37,7610.71 1667.06,7591.56L1721.88,7591.56ZM1534.29,7626.76C1534.29,7630.96 1536.94,7632.95 1541.3,7632.95C1545.5,7632.95 1548.46,7630.96 1548.46,7626.76L1548.46,7550.91C1548.46,7546.86 1545.75,7544.57 1541.54,7544.57C1537.18,7544.57 1534.29,7546.86 1534.29,7550.91L1534.29,7626.76ZM1612.46,7597.48C1610.44,7602.77 1607.48,7613.83 1606.08,7619.59C1604.83,7613.98 1601.71,7603.55 1599.85,7598.25L1581.78,7549.19C1580.69,7546.08 1578.35,7544.83 1575.55,7544.83C1574.61,7544.83 1573.52,7544.99 1572.43,7545.3C1569.47,7546.08 1567.45,7548.41 1567.45,7551.37C1567.45,7552.15 1567.61,7552.93 1567.92,7553.87L1596.57,7626.6C1598.44,7631.43 1601.71,7632.95 1605.92,7632.95C1609.97,7632.95 1613.39,7631.58 1615.26,7626.76L1643.92,7553.87C1644.39,7552.93 1644.55,7552 1644.55,7551.22C1644.55,7548.26 1642.52,7546.23 1639.4,7545.3C1638.32,7544.99 1637.38,7544.83 1636.45,7544.83C1633.64,7544.83 1631.46,7546.23 1630.22,7549.35L1612.46,7597.48ZM1498.84,7561.5L1432.49,7561.5L1432.49,7516.18C1432.49,7511.81 1429.22,7509.79 1425.02,7509.79C1420.65,7509.79 1417.54,7511.81 1417.54,7516.18L1417.54,7626.6C1417.54,7630.81 1420.65,7632.94 1425.02,7632.94C1429.22,7632.94 1432.49,7630.81 1432.49,7626.6L1432.49,7575.05L1498.84,7575.05L1498.84,7626.6C1498.84,7630.81 1502.11,7632.93 1506.63,7632.93C1510.68,7632.93 1513.79,7630.81 1513.79,7626.6L1513.79,7516.18C1513.79,7511.81 1510.68,7509.79 1506.63,7509.79C1502.11,7509.79 1498.84,7511.81 1498.84,7516.18L1498.84,7561.5ZM1667.53,7580.19C1669.55,7564.92 1677.65,7554.96 1692.6,7554.96C1706.93,7554.96 1713.63,7566.32 1715.5,7577.38L1715.5,7578.16C1715.5,7579.56 1714.87,7580.19 1713.16,7580.19L1667.53,7580.19ZM1541.45,7509.63C1535.53,7509.63 1530.86,7514.15 1530.86,7520.07C1530.86,7526.14 1535.53,7530.66 1541.45,7530.66C1547.21,7530.66 1551.88,7526.14 1551.88,7520.07C1551.88,7514.15 1547.21,7509.63 1541.45,7509.63Z" style="fill:white;fill-rule:nonzero;"/>
                        </g>
                        <g transform="matrix(1.45394,0,0,1.82818,-6190.56,-3288.84)">
                            <path d="M21047.3,3303.4L21051.5,3303.4C21067.6,3303.4 21077.2,3292.97 21077.2,3274.29L21077.2,3204.78C21077.2,3198.92 21081.3,3196.09 21087.2,3196.09C21093.1,3196.09 21097.2,3198.92 21097.2,3204.78L21097.2,3278.42C21097.2,3304.92 21077.5,3322.18 21051.9,3322.18C21051,3322.18 21047.8,3322.2 21046.9,3322.2C21021.3,3322.2 21001.7,3304.92 21001.7,3278.42L21001.7,3204.78C21001.7,3198.92 21005.8,3196.09 21011.7,3196.09C21017.5,3196.09 21021.7,3198.92 21021.7,3204.78L21021.7,3274.29C21021.7,3292.97 21031.3,3303.4 21047.3,3303.4Z" style="fill:white;fill-rule:nonzero;"/>
                        </g>
                        <g transform="matrix(2.01316,0,0,2.54862,22214.9,-16670.3)">
                            <path d="M1023.03,7561.5L956.681,7561.5L956.681,7516.18C956.681,7511.81 953.41,7509.79 949.205,7509.79C944.844,7509.79 941.729,7511.81 941.729,7516.18L941.729,7626.6C941.729,7630.81 944.844,7633.14 949.205,7633.14C953.41,7633.14 956.681,7630.81 956.681,7626.6L956.681,7575.05L1023.03,7575.05L1023.03,7626.6C1023.03,7630.81 1026.31,7633.16 1030.82,7633.16C1034.87,7633.16 1037.98,7630.81 1037.98,7626.6L1037.98,7516.18C1037.98,7511.81 1034.87,7509.79 1030.82,7509.79C1026.3,7509.79 1023.03,7511.81 1023.03,7516.18L1023.03,7561.5Z" style="fill:white;fill-rule:nonzero;"/>
                        </g>
                    </g>
                </g>
                <g transform="matrix(0.772645,0,0,0.772645,11296.1,-607.238)">
                    <g transform="matrix(0.88877,0,0,0.88877,286.912,1346.86)">
                        <path d="M-2.433,239.076L-21.891,239.076C-21.891,239.076 -29.683,226.823 -35.294,219.126C-32.274,211.154 -28.195,202.71 -28.195,202.71L-26.284,202.387C-22.291,201.943 -19.337,201.193 -15.458,200.145L-12.127,199.245L-19.058,219.029L-2.433,239.076ZM-49.282,239.076L-60.637,219.276C-60.637,219.276 -57.915,213.341 -52.757,204.679L-37.352,203.695C-38.731,207.16 -44.302,219.276 -44.302,219.276L-30.895,239.076L-49.282,239.076ZM-75.855,239.076C-75.855,239.076 -81.846,227.131 -85.669,219.308C-81.462,211.636 -76.17,201.917 -76.17,201.917C-76.17,201.917 -70.839,203.639 -62.37,204.431C-65.233,209.896 -69.794,219.276 -69.794,219.276L-58.162,239.076L-75.855,239.076ZM54.202,19.793C54.202,15.408 45.487,16.558 44.562,19.724C44.186,21.009 38.75,64.568 35.208,84.893C31.048,108.88 27.361,133.372 17.943,155.976C16.83,155.175 15.839,154.927 14.904,154.85C22.082,122.772 36.134,26.971 33.165,17.319C32.265,14.396 23.975,14.64 23.5,17.66C23.017,20.729 21.988,63.06 20.497,80.901C18.334,106.762 10.246,152.741 9.405,154.184C8.064,156.486 5.197,156.164 2.475,163.342C1.534,162.91 1.37,161.252 -8.778,158.529C-19.68,155.605 -27.72,155.917 -27.72,155.917C-27.72,155.917 -61.94,86.787 -88.216,62.202C-114.492,37.617 -158.151,-5.451 -185.375,8.409C-187.891,9.689 -189.088,13.359 -188.098,16.081C-184.107,27.057 -135.637,126.447 -112.637,138.447C-96.341,146.949 -57.896,138.486 -40.445,156.847C-54.305,157.837 -78.447,153.962 -87.429,166.469C-89.453,169.287 -90.673,172.595 -91.145,176.032C-92.279,184.311 -91.169,192.481 -84.456,198.313C-86.872,202.941 -94.792,219.276 -94.792,219.276L-81.674,245.759L24.473,245.379L24.457,239.076L6.662,239.076C6.662,239.076 -3.218,226.453 -9.9,219.029C-7.601,213.641 -1.103,197.06 -0.743,196.507C2.475,191.556 3.712,183.141 4.455,175.717C9.652,185.121 13.363,188.056 17.819,187.844C23.017,187.597 24.392,170.146 24.502,167.055C24.75,160.124 22.956,158.556 23.512,156.907C38.114,113.595 54.202,31.673 54.202,19.793M-56.014,-0.973C-62.03,-9.814 -72.04,-15.365 -82.834,-13.491C-85.237,-13.019 -88.109,-12.39 -88.112,-9.18C-87.193,4.299 -84.412,54.898 -84.412,54.898C-84.412,54.898 -80.616,58.789 -73.751,66.827C-53.402,90.653 -29.223,137.136 -23.205,147.416C-14.666,148.339 -11.355,148.843 -4.318,151.235C-4.445,103.847 -26.445,38.847 -56.014,-0.973" style="fill:white;fill-rule:nonzero;"/>
                    </g>
                    <g transform="matrix(0.875007,0,0,0.875007,-9437.34,-15281.2)">
                        <path d="M10907.2,19224.2C10918.3,19231.3 10925.7,19239 10932.5,19251.5C10925.3,19251.9 10918.1,19251.8 10909.9,19251.8C10903.3,19251.5 10905.6,19259.5 10905.6,19259.5C10905.6,19259.5 10900.6,19258.3 10899.5,19251.7C10898.6,19246.4 10901.1,19236 10907.2,19224.2ZM10923.9,19200.5C10933,19207 10950.3,19222.1 10959.9,19247.5C10957.4,19248.2 10954.8,19248.8 10952,19249.3C10948.9,19249.9 10945.9,19250.3 10943,19250.7C10935.6,19231.2 10920.3,19218 10913.9,19213.1C10916.8,19208.9 10920.1,19204.6 10923.9,19200.5ZM10947.2,19181.3C10954.2,19186.8 10975.2,19205.5 10982.7,19238.2C10978.6,19240.7 10974,19242.9 10969,19244.7C10962.3,19218.5 10942.3,19199.4 10933,19191.7C10937.3,19188 10942.1,19184.5 10947.2,19181.3ZM10977.6,19169C10985,19176.6 10999,19193.9 11004.2,19219.9C11000,19224.5 10995.7,19228.7 10991,19232.5C10986.8,19204.4 10967.2,19182.7 10959.3,19175C10965,19172.6 10971.1,19170.5 10977.6,19169ZM10990.5,19166.8C10999.8,19165.9 11009.7,19166 11020.5,19167.4C11010.7,19174.5 11009,19194.5 11017.8,19204C11015.7,19206.6 11013.6,19209.1 11011.5,19211.5C11007.7,19192 10997.4,19175.9 10990.5,19166.8Z" style="fill:white;fill-rule:nonzero;"/>
                    </g>
                </g>
            </g>
        </g>
    </g>
</svg>
